<svg width="40" height="40" fill="none" xmlns="http://www.w3.org/2000/svg"><g clip-path="url(#clip0)" fill-rule="evenodd" clip-rule="evenodd"><path d="M40 19.66v14.434C40 37.344 37.492 40 34.414 40H5.586C2.512 40 0 37.348 0 34.094V5.906C0 2.656 2.508 0 5.586 0h28.828C37.487 0 40 2.652 40 5.906V19.66z" fill="#FFDCCB"/><path d="M40 19.38v.181a3.039 3.039 0 00-.014.363l-.014.098c-.014.196 0 .446.028.72v13.352C40 37.344 37.492 40 34.414 40H16.016l2.508-6.793c2.758.431 6.874 1.264 10.17-3.544l-10.091 2.113 1.353-2.598h-4.913L21.123 0H34.41c3.073 0 5.586 2.652 5.586 5.906v12.798c.004.274-.01.495.004.676z" fill="#F3C5B2"/><path d="M11.22 24.976a3.513 3.513 0 003.511-3.507 3.522 3.522 0 00-3.512-3.518 3.522 3.522 0 00-3.512 3.518 3.515 3.515 0 003.512 3.507z" fill="#fff"/><path d="M7.317 21.47a3.913 3.913 0 013.902-3.909 3.913 3.913 0 013.903 3.908 3.903 3.903 0 01-7.805 0zm3.902-3.128a3.132 3.132 0 00-3.122 3.127 3.123 3.123 0 006.244 0 3.132 3.132 0 00-3.122-3.128z" fill="#482E4D"/><path d="M24.383 25.854c2.418 0 4.398-1.966 4.398-4.384a4.411 4.411 0 00-4.398-4.397c-2.417 0-4.383 1.98-4.383 4.397a4.393 4.393 0 004.383 4.384z" fill="#fff"/><path d="M19.512 21.47c0-2.685 2.182-4.885 4.871-4.885a4.9 4.9 0 014.885 4.885c0 2.69-2.2 4.871-4.885 4.871a4.881 4.881 0 01-4.87-4.87zm4.871-3.91c-2.146 0-3.895 1.76-3.895 3.91a3.906 3.906 0 003.895 3.896c2.15 0 3.91-1.75 3.91-3.896a3.924 3.924 0 00-3.91-3.91z" fill="#482E4D"/><path d="M4.534 11.366c0-1-2.077 8.504-4.534 11.381V5.911C0 2.661 2.508.005 5.586.005h28.828C37.487.005 40 2.657 40 5.91v21.963c-1.813-.804-3.847-2.848-4.325-7.877-.895-9.542-2.406-16.767-2.406-16.767S21.787 24.953 4.534 11.366z" fill="#7E348A"/></g><defs><clipPath id="clip0"><path d="M0 20C0 8.954 8.954 0 20 0s20 8.954 20 20-8.954 20-20 20S0 31.046 0 20z" fill="#fff"/></clipPath></defs></svg>